<svg xmlns="http://www.w3.org/2000/svg" viewBox="0 0 920 518">
  <defs>
    <radialGradient id="bg" cx="46%" cy="48%" r="75%">
      <stop offset="0" stop-color="#121d4f"/>
      <stop offset=".45" stop-color="#0c1028"/>
      <stop offset="1" stop-color="#030305"/>
    </radialGradient>
    <linearGradient id="curve" x1="0" y1="0" x2="1" y2="1">
      <stop offset="0" stop-color="#008a5b"/>
      <stop offset=".5" stop-color="#8b0055"/>
      <stop offset="1" stop-color="#e88300"/>
    </linearGradient>
  </defs>
  <rect width="920" height="518" fill="url(#bg)"/>
  <g opacity=".68" fill="none" stroke-width="2">
    <path d="M-40 250C145 150 244 236 354 194c161-62 217-236 439-188" stroke="#00b47e"/>
    <path d="M-54 352C74 199 249 289 373 229c130-62 166-171 365-176" stroke="#3958ff"/>
    <path d="M-22 434c199-177 336-49 462-143 95-72 70-180 275-267" stroke="#ff7e00"/>
    <path d="M213 0c85 90 64 203 174 267 138 79 310 18 536 79" stroke="#e61a77"/>
    <path d="M328 0c42 129-39 239 45 321 105 103 248 40 401 157" stroke="#8bcf67"/>
    <path d="M692 0c-20 141-69 232-24 344 25 63 70 101 168 174" stroke="#ffa000"/>
  </g>
  <g opacity=".8">
    <circle cx="75" cy="176" r="7" fill="#bd005e"/>
    <circle cx="174" cy="139" r="6" fill="#5f007d"/>
    <circle cx="285" cy="258" r="5" fill="#d87900"/>
    <circle cx="548" cy="342" r="5" fill="#a72700"/>
    <circle cx="668" cy="186" r="7" fill="#00a77b"/>
    <circle cx="760" cy="307" r="5" fill="#953100"/>
  </g>
  <rect x="64" y="88" width="792" height="324" rx="4" fill="none" stroke="#fff" stroke-opacity=".85" stroke-width="3"/>
  <line x1="62" y1="176" x2="857" y2="176" stroke="#fff" stroke-opacity=".45"/>
  <circle cx="103" cy="140" r="34" fill="#a10e18"/>
  <circle cx="103" cy="140" r="25" fill="#fff" opacity=".12"/>
  <text x="145" y="135" fill="#fff" font-family="Arial, sans-serif" font-size="35" font-weight="700">Course Overview - Web Security</text>
  <text x="145" y="165" fill="#fff" font-family="Arial, sans-serif" font-size="20">Stanford Online</text>
  <text x="205" y="294" fill="#fff" font-family="Arial, sans-serif" font-size="75" font-weight="700">Web Security</text>
  <rect x="304" y="378" width="288" height="70" fill="#9d0d12" stroke="#fff"/>
  <text x="333" y="424" fill="#fff" font-family="Georgia, serif" font-size="38">Stanford</text>
  <text x="488" y="424" fill="#fff" font-family="Arial, sans-serif" font-size="18">ONLINE</text>
</svg>
